<?xml version="1.0" encoding="utf-8"?>
<!-- Generator: Adobe Illustrator 18.1.1, SVG Export Plug-In . SVG Version: 6.00 Build 0)  -->
<!DOCTYPE svg PUBLIC "-//W3C//DTD SVG 1.1//EN" "http://www.w3.org/Graphics/SVG/1.1/DTD/svg11.dtd">
<svg version="1.1" id="Linux_-_Tux" xmlns="http://www.w3.org/2000/svg" xmlns:xlink="http://www.w3.org/1999/xlink" x="0px"
	 y="0px" viewBox="0 17.9 479.9 564.5" enable-background="new 0 17.9 479.9 564.5" xml:space="preserve">
<path fill="#EAC156" d="M206.6,147.3c-6,0.7-4,6.2-7.5,6.3C195.7,153.8,196.6,146.5,206.6,147.3z M225,148.3
	c5.9-1.4,5.9,4.4,9.2,3.3C237.3,150.6,234.2,144.2,225,148.3z M428.7,538.1c-18.4,9.2-42,29.5-50.9,38c-6.6,6.3-34,9.5-49.2,1.4
	c-18.1-9.3-8.5-23.8-36.4-24.5c-13.9-0.3-27.4-0.4-40.9-0.3c-11.9,0.1-23.9,0.6-36.1,1.1c-41.9,0.4-46,27.8-72.7,26.8
	c-18.4-0.7-41.3-15.1-80.9-23.4c-27.8-5.7-54.6-7.2-60.2-19.5c-5.6-12.2,7-26.1,7.9-38.3c1.1-16.1-12-37.6-2.4-46
	c8-7,25.5-1.9,36.8-8.2c11.9-6.7,16.8-12.2,16.8-27c4.4,14.9-0.3,27.4-10,33.4c-5.9,3.6-16.9,5.4-25.9,4.6
	c-7.2-0.7-11.6,0.6-13.8,3.2c-2.9,3.4-1.9,9.7,1.6,18.1c3.4,8.2,7.7,13.5,7.2,23.5c-0.6,10-11.8,22.1-9.9,30.7
	c0.7,3.2,3.9,6,11.6,8.2c12.8,3.6,35.4,6.9,57.9,12.3c24.9,6.2,50.8,17.6,66.8,15.5c48-6.7,20.5-58.1,12.9-70.3
	c-40.4-63.7-67.2-105.4-88.6-88.9c-5.6,4.3-5.7-10.9-5.4-16.6c1-20.9,11.6-28.2,17.9-44.4c11.8-30.5,21.1-65.5,39.4-83.4
	c13.6-17.5,34.8-46.2,39-61.4c-3.3-33-4.4-67.7-5-97.8c-0.6-32.3,4.6-60.6,41-80.4c8.9-4.9,20.4-6.6,32.7-6.7
	c21.9-0.3,46,5.9,61.4,17.3c24.7,18.2,40,57.1,38.1,84.9c-1.4,21.5,2.4,44,9.3,67.1c8.2,27.4,21.2,46.7,41.9,68.8
	c24.9,26.5,44.3,78.6,49.9,111.7c5.2,31-1.6,49.9-8.3,50.9c-10,1.4-16.3,33.4-48,32c-20.2-1-22.2-12.9-27.7-22.9
	c-9-16.2-18.2-11.2-21.8,5.7c-1.9,8.6-0.6,21.1,2.3,30.7c5.6,19.8,3.7,38.6,0.3,61.4c-6.5,43.7,30.5,51.9,55.3,31.3
	c24.7-20.4,29.8-23.8,61.1-34.4c46.9-16.1,31.3-30.3,5.9-38.7c-22.7-7.6-23.5-45.9-15.5-53c1.7,41,23.1,47,32.3,52.6
	C505,507,451.6,526.8,428.7,538.1z M324.3,417.9c4.3-5.2,9.3-5.6,16.1-5.7c1.1-24.9,39.9-23.1,52.8-12.8c0-5.7-12.2-11-17.2-13.5
	c8.5-28.2,4.6-39.7-1-66.2c-4.3-20.4-22.8-47.7-37.4-56.3c3.6,3.2,10.6,12.5,18.1,26.2c12.6,23.7,25.1,58.5,16.8,87.7
	c-3.2,11.2-10.5,12.6-15.6,13.2c-22.4,2.3-9.2-26.4-18.4-65.9c-10.3-44-20.9-47.3-23.5-50.6c-12.8-57.2-27-51.5-31.1-73.1
	c-3.6-19.1,16.6-35-10.9-40.3c-8.5-1.6-20.5-10.2-25.2-10.8c-4.7-0.7-7.2-31.5,10.3-32.8s20.6,19.6,17.3,28c-5,8.2,0.4,11.3,9,8.6
	c7-2.2,2.6-20.5,4.2-23.2c-4.6-26.4-15.5-30.1-27-32.3c-43.4,3.3-23.9,51.3-28.4,46.7c-6.2-6.6-24.7-0.4-24.7-4.6
	c0.4-24.5-7.7-38.7-19.1-39c-12.6-0.4-17.8,17.3-18.5,27.1c-0.7,9.6,5.6,29.4,10.3,28c3.2-1.1,8.3-7.2,2.7-7.2
	c-3,0-7.3-6.7-7.6-15.1c-0.4-8.2,2.6-16.5,13.3-16.1c12.5,0.6,12.3,24.9,11,25.9c-4,2.9-9.2,8.2-9.6,9.2c-4,6.7-11.9,8.3-14.9,11.3
	c-5.6,5.6-6.7,11.9-2.6,14.3c14.3,8.2,9.6,17.5,29.8,18.4c13.2,0.6,23.1-2,32.1-4.9c7-2.2,29.4-6.9,34.1-15.2c2-3.4,4.7-3.6,6.3-2.7
	c3,1.7,3.6,7.5-4.2,9.7c-11.2,3-22.4,9-32.1,12.9c-9.7,4-12.9,5.4-22.2,7.3c-20.8,3.7-36.3-7.5-22.4,6c4.6,4.6,9.2,7.3,21.1,6.9
	c26.2-1,55.6-32.5,58.6-18.4c0.7,3-8.3,6.9-15.3,10.3c-24.7,12-41.9,36-57.8,27.8c-14.1-7.5-28.1-42.4-28-26.8
	c0.4,24.2-31.8,45.7-17.1,73.3c-9.7,2.7-31.5,48.9-34.7,73c-1.7,13.8,1.3,30.8-2,40.3c-4.7,13.9-26.4-13.2-19.5-46.3
	c1.1-5.7,0.1-7.2-1.3-4.3c-8.7,15.5-3.9,37.1,3,52.3c3.2,6.6,10,9.5,15.3,15.3c11.3,12.6,54.6,44.7,62.4,52.5
	c9.6,9.3,6.9,30.8-13.3,32.8c10.3,19.5,20.4,21.4,20.4,53.2c11.8-6.3,7-20.1,2.2-29c-3.3-6.2-7.9-9-7-10.5c0.7-1.1,6.7-6.3,10.3-2.2
	c10.6,11.9,30.8,14.1,52.5,11.5c21.6-2.7,44.7-10.3,55.5-27.5c5-8,8.6-10.9,11-9.6c2.3,1.4,3.3,7.2,3.2,16.2
	c-0.3,10.2-4.6,20.6-7.2,29.1c-3,9.6-3.9,16.3,5.4,16.8c2.9-17.8,7.6-35.1,9-52.8C323.2,473.8,308.7,436.6,324.3,417.9z
	 M191.9,133.6c-0.7,3.9-0.4,6.5,2.3,6.5c0.4,0,1-0.1,1.1-1.1c1.3-7.7-2.7-13.6-4.4-14.1c-3.9-1-3.3,4.6-1.3,4.2
	C190.7,128.7,192.3,130.7,191.9,133.6z M263.1,122.7c-3.9,0.4-2.9,2.3-0.9,3c2.6,0.9,5,5.2,5.4,9.9c0,0.4,3.3-0.7,3.3-1.7
	C271.4,126.1,264.8,122.5,263.1,122.7z"/>
</svg>
