<?xml version="1.0" encoding="utf-8"?>
<!-- Generator: Adobe Illustrator 18.1.1, SVG Export Plug-In . SVG Version: 6.00 Build 0)  -->
<!DOCTYPE svg PUBLIC "-//W3C//DTD SVG 1.1//EN" "http://www.w3.org/Graphics/SVG/1.1/DTD/svg11.dtd">
<svg version="1.1" id="Apple" xmlns="http://www.w3.org/2000/svg" xmlns:xlink="http://www.w3.org/1999/xlink" x="0px" y="0px"
	 viewBox="0 7.2 480 573.9" enable-background="new 0 7.2 480 573.9" xml:space="preserve">
<path fill="#EAC156" d="M270.9,141c-8.4,2.5-20.5,4.5-36,5.8c0.7-34.2,9.6-63.8,26.9-88.5c16.9-24.6,45.6-41.7,86.2-51.1
	c0.3,0.7,0.6,1.9,0.9,3.8c0.3,1.7,0.7,3.2,0.9,3.8c0,1,0,2,0.1,3.3c0,1.3,0.1,2.5,0.1,3.3c0,14.1-3.2,29.6-9.9,46.9
	c-6.8,17.2-17.6,33.1-31.9,47.5C295.6,128.7,283.3,137,270.9,141z M425.2,382.6c-15.9-22.7-23.7-48.3-23.7-76.9
	c0-25.9,7.4-49.7,22.4-71.2c8-11.8,21.1-25.2,39.3-40.6c-11.9-14.7-23.9-26.2-35.8-34.4c-21.6-14.9-46.2-22.4-73.4-22.4
	c-16.3,0-36.1,3.9-59.6,11.8c-22.6,7.9-39,11.8-49.2,11.8c-7.7,0-23.6-3.3-47.5-10.3c-24.2-7-44.6-10.3-61-10.3
	c-39.6,0-72.1,16.5-97.9,49.5C13,223.2,0,266.1,0,318.4c0,55.6,16.9,113.3,50.7,173.4c34.2,59.6,68.7,89.3,103.7,89.3
	c11.8,0,26.9-3.9,45.4-11.8c18.6-7.6,35-11.4,49.1-11.4c14.9,0,32.2,3.6,52,11.1c20.8,7.4,37,11.1,48.2,11.1
	c29.4,0,59-22.6,88.5-67.6c19.2-28.7,33.5-57.4,42.4-86.2C459.3,419.8,441.1,405.4,425.2,382.6z"/>
</svg>
