<?xml version="1.0" encoding="utf-8"?>
<!-- Generator: Adobe Illustrator 18.1.1, SVG Export Plug-In . SVG Version: 6.00 Build 0)  -->
<!DOCTYPE svg PUBLIC "-//W3C//DTD SVG 1.1//EN" "http://www.w3.org/Graphics/SVG/1.1/DTD/svg11.dtd">
<svg version="1.1" id="Linux_-_Tux" xmlns="http://www.w3.org/2000/svg" xmlns:xlink="http://www.w3.org/1999/xlink" x="0px"
	 y="0px" viewBox="88.6 188.3 334.8 393.6" enable-background="new 88.6 188.3 334.8 393.6" xml:space="preserve">
<path fill="#FFFFFF" d="M232.8,278.4c-4.2,0.5-2.8,4.3-5.2,4.4S225.8,277.8,232.8,278.4z M245.6,279.1c4.1-1,4.1,3.1,6.4,2.3
	C254.2,280.7,252,276.2,245.6,279.1z M387.7,551c-12.8,6.4-29.3,20.6-35.5,26.5c-4.6,4.4-23.7,6.6-34.3,1
	c-12.6-6.5-5.9-16.6-25.4-17.1c-9.7-0.2-19.1-0.3-28.5-0.2c-8.3,0.1-16.7,0.4-25.2,0.8c-29.2,0.3-32.1,19.4-50.7,18.7
	c-12.8-0.5-28.8-10.5-56.4-16.3c-19.4-4-38.1-5-42-13.6c-3.9-8.5,4.9-18.2,5.5-26.7c0.8-11.2-8.4-26.2-1.7-32.1
	c5.6-4.9,17.8-1.3,25.7-5.7c8.3-4.7,11.7-8.5,11.7-18.8c3.1,10.4-0.2,19.1-7,23.3c-4.1,2.5-11.8,3.8-18.1,3.2
	c-5-0.5-8.1,0.4-9.6,2.2c-2,2.4-1.3,6.8,1.1,12.6c2.4,5.7,5.4,9.4,5,16.4c-0.4,7-8.2,15.4-6.9,21.4c0.5,2.2,2.7,4.2,8.1,5.7
	c8.9,2.5,24.7,4.8,40.4,8.6c17.4,4.3,35.4,12.3,46.6,10.8c33.5-4.7,14.3-40.5,9-49c-28.2-44.4-46.9-73.5-61.8-62
	c-3.9,3-4-7.6-3.8-11.6c0.7-14.6,8.1-19.7,12.5-31c8.2-21.3,14.7-45.7,27.5-58.2c9.5-12.2,24.3-32.2,27.2-42.8
	c-2.3-23-3.1-47.2-3.5-68.2c-0.4-22.5,3.2-42.3,28.6-56.1c6.2-3.4,14.2-4.6,22.8-4.7c15.3-0.2,32.1,4.1,42.8,12.1
	c17.2,12.7,27.9,39.8,26.6,59.2c-1,15,1.7,30.7,6.5,46.8c5.7,19.1,14.8,32.6,29.2,48c17.4,18.5,30.9,54.8,34.8,77.9
	c3.6,21.6-1.1,34.8-5.8,35.5c-7,1-11.4,23.3-33.5,22.3c-14.1-0.7-15.5-9-19.3-16c-6.3-11.3-12.7-7.8-15.2,4
	c-1.3,6-0.4,14.7,1.6,21.4c3.9,13.8,2.6,26.9,0.2,42.8c-4.5,30.5,21.3,36.2,38.6,21.8c17.2-14.2,20.8-16.6,42.6-24
	c32.7-11.2,21.8-21.1,4.1-27c-15.8-5.3-16.4-32-10.8-37c1.2,28.6,16.1,32.8,22.5,36.7C440.9,529.3,403.7,543.1,387.7,551z
	 M314.9,467.1c3-3.6,6.5-3.9,11.2-4c0.8-17.4,27.8-16.1,36.8-8.9c0-4-8.5-7.7-12-9.4c5.9-19.7,3.2-27.7-0.7-46.2
	c-3-14.2-15.9-33.3-26.1-39.3c2.5,2.2,7.4,8.7,12.6,18.3c8.8,16.5,17.5,40.8,11.7,61.2c-2.2,7.8-7.3,8.8-10.9,9.2
	c-15.6,1.6-6.4-18.4-12.8-46c-7.2-30.7-14.6-33-16.4-35.3c-8.9-39.9-18.8-35.9-21.7-51c-2.5-13.3,11.6-24.4-7.6-28.1
	c-5.9-1.1-14.3-7.1-17.6-7.5c-3.3-0.5-5-22,7.2-22.9c12.2-0.9,14.4,13.7,12.1,19.5c-3.5,5.7,0.3,7.9,6.3,6
	c4.9-1.5,1.8-14.3,2.9-16.2c-3.2-18.4-10.8-21-18.8-22.5c-30.3,2.3-16.7,35.8-19.8,32.6c-4.3-4.6-17.2-0.3-17.2-3.2
	c0.3-17.1-5.4-27-13.3-27.2c-8.8-0.3-12.4,12.1-12.9,18.9c-0.5,6.7,3.9,20.5,7.2,19.5c2.2-0.8,5.8-5,1.9-5c-2.1,0-5.1-4.7-5.3-10.5
	c-0.3-5.7,1.8-11.5,9.3-11.2c8.7,0.4,8.6,17.4,7.7,18.1c-2.8,2-6.4,5.7-6.7,6.4c-2.8,4.7-8.3,5.8-10.4,7.9c-3.9,3.9-4.7,8.3-1.8,10
	c10,5.7,6.7,12.2,20.8,12.8c9.2,0.4,16.1-1.4,22.4-3.4c4.9-1.5,20.5-4.8,23.8-10.6c1.4-2.4,3.3-2.5,4.4-1.9c2.1,1.2,2.5,5.2-2.9,6.8
	c-7.8,2.1-15.6,6.3-22.4,9c-6.8,2.8-9,3.8-15.5,5.1c-14.5,2.6-25.3-5.2-15.6,4.2c3.2,3.2,6.4,5.1,14.7,4.8
	c18.3-0.7,38.8-22.7,40.9-12.8c0.5,2.1-5.8,4.8-10.7,7.2c-17.2,8.4-29.2,25.1-40.3,19.4c-9.8-5.2-19.6-29.6-19.5-18.7
	c0.3,16.9-22.2,31.9-11.9,51.1c-6.8,1.9-22,34.1-24.2,50.9c-1.2,9.6,0.9,21.5-1.4,28.1c-3.3,9.7-18.4-9.2-13.6-32.3
	c0.8-4,0.1-5-0.9-3c-6.1,10.8-2.7,25.9,2.1,36.5c2.2,4.6,7,6.6,10.7,10.7c7.9,8.8,38.1,31.2,43.5,36.6c6.7,6.5,4.8,21.5-9.3,22.9
	c7.2,13.6,14.2,14.9,14.2,37.1c8.2-4.4,4.9-14,1.5-20.2c-2.3-4.3-5.5-6.3-4.9-7.3c0.5-0.8,4.7-4.4,7.2-1.5c7.4,8.3,21.5,9.8,36.6,8
	c15.1-1.9,31.2-7.2,38.7-19.2c3.5-5.6,6-7.6,7.7-6.7c1.6,1,2.3,5,2.2,11.3c-0.2,7.1-3.2,14.4-5,20.3c-2.1,6.7-2.7,11.4,3.8,11.7
	c2-12.4,5.3-24.5,6.3-36.8C314.1,506.1,304,480.2,314.9,467.1z M222.5,268.8c-0.5,2.7-0.3,4.5,1.6,4.5c0.3,0,0.7-0.1,0.8-0.8
	c0.9-5.4-1.9-9.5-3.1-9.8c-2.7-0.7-2.3,3.2-0.9,2.9C221.7,265.4,222.8,266.8,222.5,268.8z M272.2,261.2c-2.7,0.3-2,1.6-0.6,2.1
	c1.8,0.6,3.5,3.6,3.8,6.9c0,0.3,2.3-0.5,2.3-1.2C278,263.6,273.4,261.1,272.2,261.2z"/>
</svg>
