<?xml version="1.0" encoding="utf-8"?>
<!-- Generator: Adobe Illustrator 18.1.1, SVG Export Plug-In . SVG Version: 6.00 Build 0)  -->
<!DOCTYPE svg PUBLIC "-//W3C//DTD SVG 1.1//EN" "http://www.w3.org/Graphics/SVG/1.1/DTD/svg11.dtd">
<svg version="1.1" id="Apple" xmlns="http://www.w3.org/2000/svg" xmlns:xlink="http://www.w3.org/1999/xlink" x="0px" y="0px"
	 viewBox="91.3 188.1 329.6 393.8" enable-background="new 91.3 188.1 329.6 393.8" xml:space="preserve">
<path fill="#FFFFFF" d="M277.4,279.9c-5.8,1.7-14.1,3.1-24.7,4c0.5-23.5,6.6-43.8,18.5-60.8c11.6-16.9,31.3-28.6,59.2-35.1
	c0.2,0.5,0.4,1.3,0.6,2.6c0.2,1.2,0.5,2.2,0.6,2.6c0,0.7,0,1.4,0.1,2.3c0,0.9,0.1,1.7,0.1,2.3c0,9.7-2.2,20.3-6.8,32.2
	c-4.7,11.8-12.1,22.7-21.9,32.6C294.4,271.4,285.9,277.1,277.4,279.9z M383.4,445.8c-10.9-15.6-16.3-33.2-16.3-52.8
	c0-17.8,5.1-34.1,15.4-48.9c5.5-8.1,14.5-17.3,27-27.9c-8.2-10.1-16.4-18-24.6-23.6c-14.8-10.2-31.7-15.4-50.4-15.4
	c-11.2,0-24.8,2.7-40.9,8.1c-15.5,5.4-26.8,8.1-33.8,8.1c-5.3,0-16.2-2.3-32.6-7.1c-16.6-4.8-30.6-7.1-41.9-7.1
	c-27.2,0-49.5,11.3-67.2,34c-17.8,23.1-26.7,52.6-26.7,88.5c0,38.2,11.6,77.8,34.8,119.1c23.5,40.9,47.2,61.3,71.2,61.3
	c8.1,0,18.5-2.7,31.2-8.1c12.8-5.2,24-7.8,33.7-7.8c10.2,0,22.1,2.5,35.7,7.6c14.3,5.1,25.4,7.6,33.1,7.6
	c20.2,0,40.5-15.5,60.8-46.4c13.2-19.7,23-39.4,29.1-59.2C406.8,471.3,394.3,461.4,383.4,445.8z"/>
</svg>
